<?xml version="1.0" encoding="utf-8"?>
<!-- Generator: Adobe Illustrator 25.4.1, SVG Export Plug-In . SVG Version: 6.00 Build 0)  -->
<svg version="1.1" id="Laag_1" xmlns="http://www.w3.org/2000/svg" xmlns:xlink="http://www.w3.org/1999/xlink" x="0px" y="0px"
	 viewBox="0 0 518.74 226.77" style="enable-background:new 0 0 518.74 226.77;" xml:space="preserve">
<style type="text/css">
	.st0{fill:#EA582D;}
	.st1{fill:#F2B484;}
	.st2{fill:#005A5B;}
	.st3{fill:none;stroke:#F2B484;stroke-width:1.4278;stroke-miterlimit:10;}
</style>
<g>
	<path class="st0" d="M29,116.86H8.93V35.81H29c6.48,0,11.41,1.54,14.78,4.61c3.37,3.08,5.05,7.36,5.05,12.84V99.4
		c0,5.57-1.67,9.87-4.99,12.9C40.51,115.34,35.57,116.86,29,116.86z M40.1,99.4V53.27c0-2.66-0.98-4.99-2.93-6.98
		c-1.96-2-4.68-2.99-8.17-2.99H17.66v66.08H29c3.49,0,6.21-0.98,8.17-2.93C39.12,104.5,40.1,102.15,40.1,99.4z"/>
	<path class="st0" d="M100.33,101.62v-6.7h8.53v6.7c0,5.44-1.67,9.65-5,12.61c-3.33,2.96-8.33,4.45-14.99,4.45
		c-6.66,0-11.7-1.48-15.11-4.45c-3.41-2.96-5.12-7.17-5.12-12.61V52.88c0-5.44,1.67-9.65,5-12.61c3.33-2.97,8.33-4.45,14.99-4.45
		c6.66,0,11.7,1.48,15.11,4.45c3.41,2.97,5.12,7.17,5.12,12.61v26.81H77.17v21.94c0,6.5,3.86,9.75,11.58,9.75
		C96.47,111.37,100.33,108.13,100.33,101.62z M77.17,52.88v19.5h23.16v-19.5c0-6.5-3.86-9.75-11.58-9.75
		C81.03,43.13,77.17,46.38,77.17,52.88z"/>
	<path class="st0" d="M139.94,116.86h-8.53V37.64h3.66l3.05,7.92c3.9-6.5,9.3-9.75,16.21-9.75c11.94,0,17.92,5.69,17.92,17.06v63.98
		h-8.53V52.88c0-3.09-0.67-5.49-2.01-7.19c-1.34-1.71-3.8-2.56-7.38-2.56c-3.57,0-6.87,1.38-9.87,4.14
		c-3.01,2.76-4.51,5.44-4.51,8.04V116.86z"/>
	<path class="st0" d="M224.63,35.81h18.83c6.48,0,11.41,1.54,14.78,4.61c3.37,3.08,5.05,7.36,5.05,12.84v7.48
		c0,7.07-2.95,11.6-8.85,13.59c6.73,1.83,10.1,6.44,10.1,13.84V99.4c0,5.57-1.67,9.87-4.99,12.9c-3.33,3.03-8.27,4.55-14.84,4.55
		h-20.07V35.81z M254.56,60.75v-7.48c0-2.66-0.98-4.99-2.93-6.98c-1.95-2-4.68-2.99-8.17-2.99h-10.1v28.05h10.1
		c3.49,0,6.21-1.08,8.17-3.24C253.58,65.95,254.56,63.49,254.56,60.75z M255.81,99.4V88.18c0-2.66-1-5.09-2.99-7.29
		c-1.99-2.2-4.7-3.3-8.1-3.3h-11.34v31.8h11.34c3.49,0,6.21-0.98,8.17-2.93C254.83,104.5,255.81,102.15,255.81,99.4z"/>
	<path class="st0" d="M325.79,52.5v47.67c0,5.32-1.69,9.44-5.06,12.34c-3.38,2.9-8.42,4.35-15.14,4.35c-6.71,0-11.78-1.45-15.2-4.35
		s-5.12-7.01-5.12-12.34V52.5c0-5.32,1.69-9.43,5.07-12.34c3.38-2.9,8.42-4.35,15.13-4.35c6.71,0,11.78,1.45,15.2,4.35
		C324.08,43.07,325.79,47.18,325.79,52.5z M317.45,100.17V52.5c0-6.36-3.98-9.53-11.92-9.53c-7.95,0-11.92,3.18-11.92,9.53v47.67
		c0,6.36,3.97,9.53,11.92,9.53C313.47,109.71,317.45,106.53,317.45,100.17z"/>
	<path class="st0" d="M387.09,100.17c0,11.12-6.71,16.69-20.14,16.69c-13.43,0-20.14-5.56-20.14-16.69V90.04h8.34v10.61
		c0,2.86,0.99,5.09,2.98,6.67c1.99,1.59,4.93,2.38,8.82,2.38s6.83-0.79,8.82-2.38c1.99-1.59,2.98-3.75,2.98-6.5
		c0-2.74-0.3-4.92-0.89-6.55c-0.6-1.63-1.81-3.36-3.64-5.18l-20.98-20.5c-2.46-2.46-4.15-4.87-5.07-7.21
		c-0.91-2.34-1.37-5.3-1.37-8.88c0-5.32,1.65-9.43,4.95-12.34c3.3-2.9,8.29-4.35,14.96-4.35c12.79,0,19.19,5.56,19.19,16.69v10.13
		h-8.34V52.02c0-2.86-0.93-5.08-2.8-6.67c-1.87-1.59-4.67-2.38-8.41-2.38s-6.54,0.79-8.4,2.38c-1.87,1.59-2.8,3.78-2.8,6.56
		c0,2.78,0.28,4.97,0.84,6.55c0.55,1.59,1.79,3.26,3.69,5.01l21.34,20.5c2.3,2.54,3.89,4.99,4.77,7.33
		C386.65,93.64,387.09,96.6,387.09,100.17z"/>
	<path class="st0" d="M439.07,100.17v-6.55h8.34v6.55c0,5.32-1.63,9.44-4.89,12.34c-3.26,2.9-8.14,4.35-14.66,4.35
		c-6.52,0-11.44-1.45-14.78-4.35c-3.34-2.9-5.01-7.01-5.01-12.34V52.5c0-5.32,1.63-9.43,4.89-12.34c3.26-2.9,8.14-4.35,14.66-4.35
		c6.51,0,11.44,1.45,14.78,4.35c3.34,2.9,5.01,7.01,5.01,12.34v11.32h-8.34V52.5c0-6.36-3.78-9.53-11.32-9.53
		c-7.55,0-11.32,3.18-11.32,9.53v47.67c0,6.36,3.77,9.53,11.32,9.53C435.3,109.71,439.07,106.53,439.07,100.17z"/>
	<path class="st0" d="M477.3,116.79h-8.52V37.64h8.52v35.31h23.99V37.64h8.52v79.15h-8.52V80.26H477.3V116.79z"/>
	<path class="st0" d="M163.7,191.76v-6.7h8.53v6.7c0,5.44-1.67,9.65-5,12.61c-3.33,2.96-8.33,4.45-14.99,4.45
		c-6.66,0-11.7-1.48-15.11-4.45c-3.41-2.96-5.12-7.17-5.12-12.61v-48.75c0-5.44,1.67-9.65,5-12.61c3.33-2.97,8.33-4.45,14.99-4.45
		s11.7,1.48,15.11,4.45c3.41,2.97,5.12,7.17,5.12,12.61v11.58h-8.53v-11.58c0-6.5-3.86-9.75-11.58-9.75
		c-7.72,0-11.58,3.25-11.58,9.75v48.75c0,6.5,3.86,9.75,11.58,9.75C159.84,201.51,163.7,198.26,163.7,191.76z"/>
	<path class="st0" d="M233.17,139.32h18.28v7.31h-18.28v46.84c0,2.27,0.59,4.18,1.77,5.73c1.18,1.54,2.85,2.32,5,2.32
		c2.15,0,3.8-0.75,4.94-2.26c1.13-1.5,1.71-3.43,1.71-5.79v-14.5h8.53v14.01c0,5.12-1.36,9.04-4.08,11.76
		c-2.73,2.72-6.4,4.08-11.03,4.08c-4.63,0-8.35-1.36-11.15-4.08c-2.8-2.72-4.21-6.64-4.21-11.76v-53.66v-11.54h8.46L233.17,139.32z"
		/>
	<path class="st0" d="M293,208.82h-8.53v-24.25c-11.05-1.22-16.57-6.82-16.57-16.82v-39.97h8.53v39.97c0,6.5,4.06,9.75,12.18,9.75
		c8.13,0,12.19-3.25,12.19-9.75v-39.97h8.53v39.97c0,9.99-5.44,15.6-16.33,16.82V208.82z"/>
	<g>
		<path class="st1" d="M192.63,40.49l-0.15,2.64c0,0-11.73-5.8,1.82-17.65v-1.67c0,0-0.82,0.24-1.25,0.79c0,0,0.58-2.49-1.09-2.64
			c-1.67-0.15-1.25,1.34-1.25,1.34s-0.27-0.73-0.15-2.76s-2-2-2.37-0.21c0,0-0.21-0.85,0.36-3.25c0,0,0.03-1.37-1.31-1.88
			c0,0,0.12-0.21,1.18-0.64c0,0-1.28-2.64-2.37-1.4c0,0,0.33-0.36,0.21-1.61c-0.12-1.25-2.16-6.2-4.65-6.23
			c0,0,3.22-2.92,17.41,7.99c0,0,0.64,0.24,2.04-0.49c0,0-0.7-0.91-0.15-1.15s1,0.61,1.55,1.34c0,0,0.46,0,0.73-0.18
			s2.58,3.19,1.91,3.74c-0.67,0.55-1.79-0.64-2.04-0.73c-0.24-0.09-1.73,0.36-1.03,1.03c0.7,0.67,1.12,1.64,0.58,1.52
			s-2.28-0.36-2.37-1.09c0,0-0.79,1.88,1.7,3.28c2.49,1.4,2.72,3.83,1.54,7.59l-0.75,2.55c0,0-3.67-2.64-6.71-1.35
			C192.19,30.98,187.58,36.13,192.63,40.49z"/>
		<path class="st0" d="M202.21,34c0-2.79-1.99-5.06-4.45-5.06s-4.45,2.26-4.45,5.06H202.21z"/>
		<path class="st2" d="M228.38,222.65c0.61,0-31.96,4.98-61.49,0v-4.98c0,0,18.35-1.46,18.35-25.03l-1.58-1.58v-3.77l7.41-7.41
			l2.19-141.35c0,0-4.86-0.12-1.58-3.77c0,0,6.06-2.37,11.92,0c3.28,3.65-1.58,3.77-1.58,3.77l2.19,141.35l7.41,7.41v3.77
			l-1.58,1.58c0,23.57,18.35,25.03,18.35,25.03L228.38,222.65"/>
		<path class="st3" d="M202.69,44.19c1.54,0,0,1.38,0,1.38c-14.54,5.89-10.27,6.99-10.27,6.99h0.17"/>
	</g>
</g>
</svg>
